<svg width="642" height="454" viewBox="0 0 642 454" fill="none" xmlns="http://www.w3.org/2000/svg">
<path d="M347.502 431C524.785 431 642 520.283 642 343C642 165.717 594.785 0 417.502 0C240.219 0 0 165.717 0 343C0 520.283 170.219 431 347.502 431Z" fill="#F2F2F2"/>
<path d="M183.564 232.703L231.221 248.797V272.781L162.08 244.656V226.844L183.564 232.703ZM231.221 219.656L183.486 236.062L162.08 241.688V223.875L231.221 195.75V219.656ZM345.361 168.25V282H319.033V197.938L293.096 205.516V185.516L342.939 168.25H345.361ZM406.846 161.922V282H380.518V161.922H406.846ZM460.908 197.469L424.189 240.516L404.971 259.734L393.486 243.016L409.502 222.156L429.346 197.469H460.908ZM432.705 282L410.127 243.484L429.58 229.656L462.861 282H432.705ZM468.018 162H494.346V261.219L491.611 282H468.018V162ZM546.221 238.797V240.438C546.221 246.844 545.57 252.677 544.268 257.938C542.965 263.198 540.96 267.755 538.252 271.609C535.544 275.411 532.132 278.354 528.018 280.438C523.903 282.521 519.033 283.562 513.408 283.562C508.304 283.562 503.929 282.469 500.283 280.281C496.637 278.042 493.59 274.969 491.143 271.062C488.695 267.104 486.715 262.547 485.205 257.391C483.695 252.182 482.497 246.609 481.611 240.672V238.719C482.497 232.833 483.695 227.312 485.205 222.156C486.715 216.948 488.695 212.391 491.143 208.484C493.59 204.526 496.611 201.453 500.205 199.266C503.851 197.026 508.2 195.906 513.252 195.906C518.929 195.906 523.825 196.974 527.939 199.109C532.106 201.245 535.544 204.24 538.252 208.094C540.96 211.948 542.965 216.479 544.268 221.688C545.57 226.896 546.221 232.599 546.221 238.797ZM519.893 240.438V238.797C519.893 235.724 519.71 232.833 519.346 230.125C518.981 227.417 518.33 225.021 517.393 222.938C516.455 220.854 515.127 219.214 513.408 218.016C511.689 216.818 509.45 216.219 506.689 216.219C503.877 216.219 501.507 216.688 499.58 217.625C497.705 218.562 496.195 219.917 495.049 221.688C493.955 223.406 493.174 225.542 492.705 228.094C492.236 230.594 492.028 233.432 492.08 236.609V242.781C491.976 247.104 492.367 250.802 493.252 253.875C494.137 256.948 495.674 259.292 497.861 260.906C500.049 262.521 503.044 263.328 506.846 263.328C509.658 263.328 511.924 262.781 513.643 261.688C515.413 260.594 516.742 259.031 517.627 257C518.512 254.969 519.111 252.547 519.424 249.734C519.736 246.922 519.893 243.823 519.893 240.438Z" fill="#3F3D56"/>
</svg>
