<svg width="1129" height="663" viewBox="0 0 1129 663" fill="none" xmlns="http://www.w3.org/2000/svg">
<path d="M321 642C498.283 642 642 498.283 642 321C642 143.717 498.283 0 321 0C143.717 0 0 143.717 0 321C0 498.283 143.717 642 321 642Z" fill="#F2F2F2"/>
<path d="M559 663C842.874 663 1073 650.688 1073 635.5C1073 620.312 842.874 608 559 608C275.126 608 45 620.312 45 635.5C45 650.688 275.126 663 559 663Z" fill="#3F3D56"/>
<path opacity="0.2" d="M558 649C812.051 649 1018 639.15 1018 627C1018 614.85 812.051 605 558 605C303.949 605 98 614.85 98 627C98 639.15 303.949 649 558 649Z" fill="black"/>
<path d="M971 152.5H131V202.5H971V152.5Z" fill="#3F3D56"/>
<path d="M131 608.83C131 611.676 131.561 614.494 132.65 617.123C133.739 619.752 135.335 622.141 137.347 624.153C139.359 626.165 141.748 627.761 144.377 628.85C147.006 629.939 149.824 630.5 152.67 630.5H949.33C952.176 630.5 954.994 629.939 957.623 628.85C960.252 627.761 962.641 626.165 964.653 624.153C966.665 622.141 968.261 619.752 969.35 617.123C970.44 614.494 971 611.676 971 608.83V177.5H131V608.83Z" fill="#3F3D56"/>
<path d="M949.33 117.5H152.67C149.824 117.5 147.006 118.061 144.377 119.15C141.748 120.239 139.359 121.835 137.347 123.847C135.335 125.859 133.739 128.248 132.65 130.877C131.561 133.506 131 136.324 131 139.17V177.5H971V139.17C971 136.324 970.44 133.506 969.35 130.877C968.261 128.248 966.665 125.859 964.653 123.847C962.641 121.835 960.252 120.239 957.623 119.15C954.994 118.061 952.176 117.5 949.33 117.5Z" fill="#3F3D56"/>
<path opacity="0.2" d="M949.33 117.5H152.67C149.824 117.5 147.006 118.061 144.377 119.15C141.748 120.239 139.359 121.835 137.347 123.847C135.335 125.859 133.739 128.248 132.65 130.877C131.561 133.506 131 136.324 131 139.17V177.5H971V139.17C971 136.324 970.44 133.506 969.35 130.877C968.261 128.248 966.665 125.859 964.653 123.847C962.641 121.835 960.252 120.239 957.623 119.15C954.994 118.061 952.176 117.5 949.33 117.5Z" fill="black"/>
<path d="M181 160.5C188.18 160.5 194 154.68 194 147.5C194 140.32 188.18 134.5 181 134.5C173.82 134.5 168 140.32 168 147.5C168 154.68 173.82 160.5 181 160.5Z" fill="#3F3D56"/>
<path d="M217 160.5C224.18 160.5 230 154.68 230 147.5C230 140.32 224.18 134.5 217 134.5C209.82 134.5 204 140.32 204 147.5C204 154.68 209.82 160.5 217 160.5Z" fill="#3F3D56"/>
<path d="M253 160.5C260.18 160.5 266 154.68 266 147.5C266 140.32 260.18 134.5 253 134.5C245.82 134.5 240 140.32 240 147.5C240 154.68 245.82 160.5 253 160.5Z" fill="#3F3D56"/>
<path d="M499.665 213.5H173.335C170.389 213.5 168 215.889 168 218.835V594.165C168 597.111 170.389 599.5 173.335 599.5H499.665C502.611 599.5 505 597.111 505 594.165V218.835C505 215.889 502.611 213.5 499.665 213.5Z" fill="#606060"/>
<path d="M881.524 272.5H608.476C605.452 272.5 603 274.952 603 277.976V289.024C603 292.048 605.452 294.5 608.476 294.5H881.524C884.548 294.5 887 292.048 887 289.024V277.976C887 274.952 884.548 272.5 881.524 272.5Z" fill="#009FE3"/>
<path d="M947.524 352.5H542.476C539.452 352.5 537 354.952 537 357.976V362.024C537 365.048 539.452 367.5 542.476 367.5H947.524C950.548 367.5 953 365.048 953 362.024V357.976C953 354.952 950.548 352.5 947.524 352.5Z" fill="#009FE3"/>
<path d="M947.524 396.5H542.476C539.452 396.5 537 398.952 537 401.976V406.024C537 409.048 539.452 411.5 542.476 411.5H947.524C950.548 411.5 953 409.048 953 406.024V401.976C953 398.952 950.548 396.5 947.524 396.5Z" fill="#009FE3"/>
<path d="M947.524 440.5H542.476C539.452 440.5 537 442.952 537 445.976V450.024C537 453.048 539.452 455.5 542.476 455.5H947.524C950.548 455.5 953 453.048 953 450.024V445.976C953 442.952 950.548 440.5 947.524 440.5Z" fill="#009FE3"/>
<path d="M947.524 484.5H542.476C539.452 484.5 537 486.952 537 489.976V494.024C537 497.048 539.452 499.5 542.476 499.5H947.524C950.548 499.5 953 497.048 953 494.024V489.976C953 486.952 950.548 484.5 947.524 484.5Z" fill="#009FE3"/>
<path d="M945.972 552.5H872.028C868.146 552.5 865 555.646 865 559.528V571.472C865 575.354 868.146 578.5 872.028 578.5H945.972C949.854 578.5 953 575.354 953 571.472V559.528C953 555.646 949.854 552.5 945.972 552.5Z" fill="#009FE3"/>
<path d="M318.679 453.808C326.377 467.141 345.622 467.141 353.321 453.808L412.689 350.978C424.327 330.82 397.971 310.4 381.359 326.704L350.009 357.474C342.23 365.109 329.77 365.109 321.991 357.474L290.641 326.704C274.029 310.4 247.673 330.82 259.311 350.978L318.679 453.808Z" fill="#007ACC"/>
<path d="M326.305 389.875V424H319.297V389.875H326.305ZM336.805 389.875V395.383H308.961V389.875H336.805ZM352.039 416.992C352.039 416.508 351.898 416.07 351.617 415.68C351.336 415.289 350.812 414.93 350.047 414.602C349.297 414.258 348.211 413.945 346.789 413.664C345.508 413.383 344.312 413.031 343.203 412.609C342.109 412.172 341.156 411.648 340.344 411.039C339.547 410.43 338.922 409.711 338.469 408.883C338.016 408.039 337.789 407.078 337.789 406C337.789 404.938 338.016 403.938 338.469 403C338.938 402.062 339.602 401.234 340.461 400.516C341.336 399.781 342.398 399.211 343.648 398.805C344.914 398.383 346.336 398.172 347.914 398.172C350.117 398.172 352.008 398.523 353.586 399.227C355.18 399.93 356.398 400.898 357.242 402.133C358.102 403.352 358.531 404.742 358.531 406.305H351.781C351.781 405.648 351.641 405.062 351.359 404.547C351.094 404.016 350.672 403.602 350.094 403.305C349.531 402.992 348.797 402.836 347.891 402.836C347.141 402.836 346.492 402.969 345.945 403.234C345.398 403.484 344.977 403.828 344.68 404.266C344.398 404.688 344.258 405.156 344.258 405.672C344.258 406.062 344.336 406.414 344.492 406.727C344.664 407.023 344.938 407.297 345.312 407.547C345.688 407.797 346.172 408.031 346.766 408.25C347.375 408.453 348.125 408.641 349.016 408.812C350.844 409.188 352.477 409.68 353.914 410.289C355.352 410.883 356.492 411.695 357.336 412.727C358.18 413.742 358.602 415.078 358.602 416.734C358.602 417.859 358.352 418.891 357.852 419.828C357.352 420.766 356.633 421.586 355.695 422.289C354.758 422.977 353.633 423.516 352.32 423.906C351.023 424.281 349.562 424.469 347.938 424.469C345.578 424.469 343.578 424.047 341.938 423.203C340.312 422.359 339.078 421.289 338.234 419.992C337.406 418.68 336.992 417.336 336.992 415.961H343.391C343.422 416.883 343.656 417.625 344.094 418.188C344.547 418.75 345.117 419.156 345.805 419.406C346.508 419.656 347.266 419.781 348.078 419.781C348.953 419.781 349.68 419.664 350.258 419.43C350.836 419.18 351.273 418.852 351.57 418.445C351.883 418.023 352.039 417.539 352.039 416.992Z" fill="#D8D8D8"/>
</svg>
