<svg viewBox="40 56 92 84
" fill="none"
    xmlns="http://www.w3.org/2000/svg">
    <path d="M76.2102 132C80.829 140 92.376 140 96.9948 132L129.219 76.1868C136.201 64.0922 120.388 51.8401 110.421 61.6226L95.0082 76.7499C90.3407 81.331 82.8644 81.331 78.1969 76.7499L62.7844 61.6226C52.8174 51.8401 37.0036 64.0922 43.9865 76.1868L76.2102 132Z" fill="#007ACC"/>
    <path d="M80.3311 89.9062V115.5H75.0752V89.9062H80.3311ZM88.2061 89.9062V94.0371H67.3232V89.9062H88.2061ZM99.6318 110.244C99.6318 109.881 99.5264 109.553 99.3154 109.26C99.1045 108.967 98.7119 108.697 98.1377 108.451C97.5752 108.193 96.7607 107.959 95.6943 107.748C94.7334 107.537 93.8369 107.273 93.0049 106.957C92.1846 106.629 91.4697 106.236 90.8604 105.779C90.2627 105.322 89.7939 104.783 89.4541 104.162C89.1143 103.529 88.9443 102.809 88.9443 102C88.9443 101.203 89.1143 100.453 89.4541 99.75C89.8057 99.0469 90.3037 98.4258 90.9482 97.8867C91.6045 97.3359 92.4014 96.9082 93.3389 96.6035C94.2881 96.2871 95.3545 96.1289 96.5381 96.1289C98.1904 96.1289 99.6084 96.3926 100.792 96.9199C101.987 97.4473 102.901 98.1738 103.534 99.0996C104.179 100.014 104.501 101.057 104.501 102.229H99.4385C99.4385 101.736 99.333 101.297 99.1221 100.91C98.9229 100.512 98.6064 100.201 98.1729 99.9785C97.751 99.7441 97.2002 99.627 96.5205 99.627C95.958 99.627 95.4717 99.7266 95.0615 99.9258C94.6514 100.113 94.335 100.371 94.1123 100.699C93.9014 101.016 93.7959 101.367 93.7959 101.754C93.7959 102.047 93.8545 102.311 93.9717 102.545C94.1006 102.768 94.3057 102.973 94.5869 103.16C94.8682 103.348 95.2314 103.523 95.6768 103.688C96.1338 103.84 96.6963 103.98 97.3643 104.109C98.7354 104.391 99.96 104.76 101.038 105.217C102.116 105.662 102.972 106.271 103.604 107.045C104.237 107.807 104.554 108.809 104.554 110.051C104.554 110.895 104.366 111.668 103.991 112.371C103.616 113.074 103.077 113.689 102.374 114.217C101.671 114.732 100.827 115.137 99.8428 115.43C98.8701 115.711 97.7744 115.852 96.5557 115.852C94.7861 115.852 93.2861 115.535 92.0557 114.902C90.8369 114.27 89.9111 113.467 89.2783 112.494C88.6572 111.51 88.3467 110.502 88.3467 109.471H93.1455C93.1689 110.162 93.3447 110.719 93.6729 111.141C94.0127 111.562 94.4404 111.867 94.9561 112.055C95.4834 112.242 96.0518 112.336 96.6611 112.336C97.3174 112.336 97.8623 112.248 98.2959 112.072C98.7295 111.885 99.0576 111.639 99.2803 111.334C99.5146 111.018 99.6318 110.654 99.6318 110.244Z" fill="#D8D8D8"/>
</svg>
