<svg width="393" height="250" viewBox="0 0 393 250" fill="none" xmlns="http://www.w3.org/2000/svg">
<path d="M0 57.7849C0 25.8712 25.8712 0 57.7849 0H214.091C235.404 0 254.194 13.9801 260.318 34.3944L269.997 66.6578C277.289 90.9643 309.064 96.7567 324.464 76.587V76.587C335.14 62.604 355.284 60.2634 368.882 71.4259L377.556 78.5457C395.851 93.5643 398.087 120.744 382.492 138.551L361.473 162.549C351.267 174.203 334.331 177.195 320.749 169.743V169.743C303.177 160.102 281.138 168.212 274.006 186.944L264.065 213.056C255.597 235.299 234.27 250 210.47 250H57.3543C25.6784 250 0 224.322 0 192.646V189.321C0 184.809 0.791967 180.332 2.33985 176.093L2.67812 175.167C11.6292 150.658 42.1077 142.338 62.2699 158.9V158.9C78.2204 172.002 101.727 169.912 115.115 154.201L117.273 151.67C130.107 136.609 129.215 114.215 115.223 100.223V100.223C100.593 85.5931 78.5303 81.3442 59.5135 89.4942L45.2527 95.606C31.1234 101.661 14.6839 96.977 5.86852 84.3836V84.3836C2.04881 78.9269 0 72.4273 0 65.7665V57.7849Z" fill="#3F3D56"/>
</svg>
